<svg width="48" height="48" viewBox="0 0 48 48" fill="none" xmlns="http://www.w3.org/2000/svg">
<path d="M39.2735 8.72649C40.2108 7.78923 40.2176 6.25889 39.1915 5.41988C35.5421 2.43602 31.0788 0.581078 26.3524 0.115566C20.8266 -0.428676 15.2831 0.959912 10.6663 4.04473C6.04956 7.12955 2.64524 11.7197 1.03343 17.0332C-0.578382 22.3466 -0.297968 28.0545 1.82689 33.1844C3.95175 38.3143 7.78959 42.5487 12.6865 45.1661C17.5834 47.7836 23.2363 48.6221 28.6822 47.5388C34.128 46.4556 39.0298 43.5176 42.5522 39.2254C45.5652 35.5542 47.4096 31.0865 47.8801 26.3961C48.0124 25.0773 46.9255 24 45.6 24C44.2745 24 43.2155 25.0787 43.0502 26.3938C42.6007 29.9716 41.1498 33.368 38.8418 36.1804C36.0238 39.6141 32.1024 41.9645 27.7457 42.8311C23.3891 43.6977 18.8667 43.0268 14.9492 40.9329C11.0317 38.8389 7.9614 35.4514 6.26151 31.3475C4.56162 27.2436 4.33729 22.6773 5.62674 18.4265C6.91619 14.1758 9.63964 10.5036 13.333 8.03578C17.0265 5.56793 21.4613 4.45706 25.8819 4.89245C29.5025 5.24905 32.9301 6.62481 35.7778 8.83675C36.8246 9.64985 38.3362 9.66375 39.2735 8.72649Z" fill="#5E5498"/>
</svg>
