<svg width="48" height="47" viewBox="0 0 48 47" fill="none" xmlns="http://www.w3.org/2000/svg">
<path d="M18.2428 2.18139C17.8895 0.903856 16.5616 0.143342 15.3257 0.622409C11.9005 1.95011 8.81523 4.05074 6.31708 6.77304C3.27632 10.0866 1.22779 14.1879 0.405035 18.6094C-0.417721 23.0308 0.0184047 27.5945 1.66369 31.78C3.30898 35.9656 6.09722 39.6047 9.71053 42.2824C13.3238 44.9601 17.6168 46.5686 22.1001 46.9247C26.5833 47.2807 31.0763 46.3699 35.067 44.2961C39.0576 42.2222 42.3853 39.0688 44.6706 35.1954C46.5481 32.0131 47.6599 28.4501 47.9334 24.7868C48.0321 23.465 46.918 22.4158 45.593 22.4496C44.2679 22.4834 43.2367 23.5887 43.105 24.9076C42.8292 27.6697 41.9566 30.3492 40.5365 32.7563C38.7082 35.8551 36.0461 38.3778 32.8536 40.0368C29.6611 41.6959 26.0666 42.4246 22.48 42.1397C18.8935 41.8549 15.4591 40.5681 12.5684 38.4259C9.67777 36.2838 7.44718 33.3725 6.13095 30.024C4.81472 26.6756 4.46582 23.0246 5.12403 19.4875C5.78223 15.9503 7.42106 12.6693 9.85366 10.0184C11.7433 7.95922 14.0529 6.34465 16.6152 5.27699C17.8387 4.76717 18.5961 3.45892 18.2428 2.18139Z" fill="#9B715D"/>
</svg>
